<mxfile host="65bd71144e">
    <diagram id="HgRTohDNU2D7XVfdNBuK" name="ページ1">
        <mxGraphModel dx="928" dy="1828" grid="1" gridSize="10" guides="1" tooltips="1" connect="1" arrows="1" fold="1" page="1" pageScale="1" pageWidth="827" pageHeight="1169" math="0" shadow="0">
            <root>
                <mxCell id="0"/>
                <mxCell id="1" parent="0"/>
                <mxCell id="2" value="" style="rounded=0;whiteSpace=wrap;html=1;" parent="1" vertex="1">
                    <mxGeometry x="10" y="-7.5" width="1870" height="1160" as="geometry"/>
                </mxCell>
                <mxCell id="3" value="ジョブ、キャラ、アビリティ" style="rounded=0;whiteSpace=wrap;html=1;" vertex="1" parent="1">
                    <mxGeometry x="20" y="40" width="200" height="60" as="geometry"/>
                </mxCell>
                <mxCell id="4" value="武器" style="rounded=0;whiteSpace=wrap;html=1;" vertex="1" parent="1">
                    <mxGeometry x="660" y="40" width="120" height="60" as="geometry"/>
                </mxCell>
                <mxCell id="5" value="召喚石" style="rounded=0;whiteSpace=wrap;html=1;" vertex="1" parent="1">
                    <mxGeometry x="1130" y="40" width="120" height="60" as="geometry"/>
                </mxCell>
                <mxCell id="39" value="" style="shape=table;html=1;whiteSpace=wrap;startSize=0;container=1;collapsible=0;childLayout=tableLayout;" vertex="1" parent="1">
                    <mxGeometry x="20" y="370" width="610" height="438" as="geometry"/>
                </mxCell>
                <mxCell id="40" value="" style="shape=tableRow;horizontal=0;startSize=0;swimlaneHead=0;swimlaneBody=0;top=0;left=0;bottom=0;right=0;collapsible=0;dropTarget=0;fillColor=none;points=[[0,0.5],[1,0.5]];portConstraint=eastwest;" vertex="1" parent="39">
                    <mxGeometry width="610" height="59" as="geometry"/>
                </mxCell>
                <mxCell id="41" value="" style="shape=partialRectangle;html=1;whiteSpace=wrap;connectable=0;fillColor=none;top=0;left=0;bottom=0;right=0;overflow=hidden;" vertex="1" parent="40">
                    <mxGeometry width="67" height="59" as="geometry">
                        <mxRectangle width="67" height="59" as="alternateBounds"/>
                    </mxGeometry>
                </mxCell>
                <mxCell id="42" value="キャラ" style="shape=partialRectangle;html=1;whiteSpace=wrap;connectable=0;fillColor=none;top=0;left=0;bottom=0;right=0;overflow=hidden;" vertex="1" parent="40">
                    <mxGeometry x="67" width="103" height="59" as="geometry">
                        <mxRectangle width="103" height="59" as="alternateBounds"/>
                    </mxGeometry>
                </mxCell>
                <mxCell id="43" value="用途" style="shape=partialRectangle;html=1;whiteSpace=wrap;connectable=0;fillColor=none;top=0;left=0;bottom=0;right=0;overflow=hidden;" vertex="1" parent="40">
                    <mxGeometry x="170" width="263" height="59" as="geometry">
                        <mxRectangle width="263" height="59" as="alternateBounds"/>
                    </mxGeometry>
                </mxCell>
                <mxCell id="65" value="覚醒" style="shape=partialRectangle;html=1;whiteSpace=wrap;connectable=0;fillColor=none;top=0;left=0;bottom=0;right=0;overflow=hidden;" vertex="1" parent="40">
                    <mxGeometry x="433" width="47" height="59" as="geometry">
                        <mxRectangle width="47" height="59" as="alternateBounds"/>
                    </mxGeometry>
                </mxCell>
                <mxCell id="68" value="指輪&lt;br&gt;耳飾り" style="shape=partialRectangle;html=1;whiteSpace=wrap;connectable=0;fillColor=none;top=0;left=0;bottom=0;right=0;overflow=hidden;" vertex="1" parent="40">
                    <mxGeometry x="480" width="70" height="59" as="geometry">
                        <mxRectangle width="70" height="59" as="alternateBounds"/>
                    </mxGeometry>
                </mxCell>
                <mxCell id="89" value="LB" style="shape=partialRectangle;html=1;whiteSpace=wrap;connectable=0;fillColor=none;top=0;left=0;bottom=0;right=0;overflow=hidden;" vertex="1" parent="40">
                    <mxGeometry x="550" width="60" height="59" as="geometry">
                        <mxRectangle width="60" height="59" as="alternateBounds"/>
                    </mxGeometry>
                </mxCell>
                <mxCell id="44" value="" style="shape=tableRow;horizontal=0;startSize=0;swimlaneHead=0;swimlaneBody=0;top=0;left=0;bottom=0;right=0;collapsible=0;dropTarget=0;fillColor=none;points=[[0,0.5],[1,0.5]];portConstraint=eastwest;" vertex="1" parent="39">
                    <mxGeometry y="59" width="610" height="70" as="geometry"/>
                </mxCell>
                <mxCell id="45" value="フロント" style="shape=partialRectangle;html=1;whiteSpace=wrap;connectable=0;fillColor=none;top=0;left=0;bottom=0;right=0;overflow=hidden;rowspan=3;colspan=1;" vertex="1" parent="44">
                    <mxGeometry width="67" height="241" as="geometry">
                        <mxRectangle width="67" height="70" as="alternateBounds"/>
                    </mxGeometry>
                </mxCell>
                <mxCell id="46" value="リミパーシヴァル" style="shape=partialRectangle;html=1;whiteSpace=wrap;connectable=0;fillColor=none;top=0;left=0;bottom=0;right=0;overflow=hidden;align=left;" vertex="1" parent="44">
                    <mxGeometry x="67" width="103" height="70" as="geometry">
                        <mxRectangle width="103" height="70" as="alternateBounds"/>
                    </mxGeometry>
                </mxCell>
                <mxCell id="47" value="&lt;span style=&quot;&quot;&gt;TA、弱体数、ヒット数など。&lt;br&gt;区間によっては2アビの緊急回避も使える&lt;/span&gt;" style="shape=partialRectangle;html=1;whiteSpace=wrap;connectable=0;fillColor=none;top=0;left=0;bottom=0;right=0;overflow=hidden;align=left;" vertex="1" parent="44">
                    <mxGeometry x="170" width="263" height="70" as="geometry">
                        <mxRectangle width="263" height="70" as="alternateBounds"/>
                    </mxGeometry>
                </mxCell>
                <mxCell id="66" value="&lt;span style=&quot;text-align: left;&quot;&gt;防御&lt;/span&gt;" style="shape=partialRectangle;html=1;whiteSpace=wrap;connectable=0;fillColor=none;top=0;left=0;bottom=0;right=0;overflow=hidden;" vertex="1" parent="44">
                    <mxGeometry x="433" width="47" height="70" as="geometry">
                        <mxRectangle width="47" height="70" as="alternateBounds"/>
                    </mxGeometry>
                </mxCell>
                <mxCell id="69" value="&lt;span style=&quot;text-align: left;&quot;&gt;なし&lt;/span&gt;" style="shape=partialRectangle;html=1;whiteSpace=wrap;connectable=0;fillColor=none;top=0;left=0;bottom=0;right=0;overflow=hidden;" vertex="1" parent="44">
                    <mxGeometry x="480" width="70" height="70" as="geometry">
                        <mxRectangle width="70" height="70" as="alternateBounds"/>
                    </mxGeometry>
                </mxCell>
                <mxCell id="90" style="shape=partialRectangle;html=1;whiteSpace=wrap;connectable=0;fillColor=none;top=0;left=0;bottom=0;right=0;overflow=hidden;" vertex="1" parent="44">
                    <mxGeometry x="550" width="60" height="70" as="geometry">
                        <mxRectangle width="60" height="70" as="alternateBounds"/>
                    </mxGeometry>
                </mxCell>
                <mxCell id="48" value="" style="shape=tableRow;horizontal=0;startSize=0;swimlaneHead=0;swimlaneBody=0;top=0;left=0;bottom=0;right=0;collapsible=0;dropTarget=0;fillColor=none;points=[[0,0.5],[1,0.5]];portConstraint=eastwest;" vertex="1" parent="39">
                    <mxGeometry y="129" width="610" height="69" as="geometry"/>
                </mxCell>
                <mxCell id="49" value="" style="shape=partialRectangle;html=1;whiteSpace=wrap;connectable=0;fillColor=none;top=0;left=0;bottom=0;right=0;overflow=hidden;" vertex="1" visible="0" parent="48">
                    <mxGeometry width="67" height="69" as="geometry">
                        <mxRectangle width="67" height="69" as="alternateBounds"/>
                    </mxGeometry>
                </mxCell>
                <mxCell id="50" value="リミゼタ" style="shape=partialRectangle;html=1;whiteSpace=wrap;connectable=0;fillColor=none;top=0;left=0;bottom=0;right=0;overflow=hidden;align=left;" vertex="1" parent="48">
                    <mxGeometry x="67" width="103" height="69" as="geometry">
                        <mxRectangle width="103" height="69" as="alternateBounds"/>
                    </mxGeometry>
                </mxCell>
                <mxCell id="51" value="&lt;span style=&quot;&quot;&gt;TA、ディスペル、弱体数、アビダメ、ヒット数などほぼすべての予兆で活躍する&lt;/span&gt;" style="shape=partialRectangle;html=1;whiteSpace=wrap;connectable=0;fillColor=none;top=0;left=0;bottom=0;right=0;overflow=hidden;pointerEvents=1;align=left;" vertex="1" parent="48">
                    <mxGeometry x="170" width="263" height="69" as="geometry">
                        <mxRectangle width="263" height="69" as="alternateBounds"/>
                    </mxGeometry>
                </mxCell>
                <mxCell id="67" value="&lt;span style=&quot;text-align: left;&quot;&gt;防御&lt;/span&gt;" style="shape=partialRectangle;html=1;whiteSpace=wrap;connectable=0;fillColor=none;top=0;left=0;bottom=0;right=0;overflow=hidden;pointerEvents=1;" vertex="1" parent="48">
                    <mxGeometry x="433" width="47" height="69" as="geometry">
                        <mxRectangle width="47" height="69" as="alternateBounds"/>
                    </mxGeometry>
                </mxCell>
                <mxCell id="70" value="&lt;span style=&quot;text-align: left;&quot;&gt;なし&lt;/span&gt;" style="shape=partialRectangle;html=1;whiteSpace=wrap;connectable=0;fillColor=none;top=0;left=0;bottom=0;right=0;overflow=hidden;pointerEvents=1;" vertex="1" parent="48">
                    <mxGeometry x="480" width="70" height="69" as="geometry">
                        <mxRectangle width="70" height="69" as="alternateBounds"/>
                    </mxGeometry>
                </mxCell>
                <mxCell id="91" style="shape=partialRectangle;html=1;whiteSpace=wrap;connectable=0;fillColor=none;top=0;left=0;bottom=0;right=0;overflow=hidden;pointerEvents=1;" vertex="1" parent="48">
                    <mxGeometry x="550" width="60" height="69" as="geometry">
                        <mxRectangle width="60" height="69" as="alternateBounds"/>
                    </mxGeometry>
                </mxCell>
                <mxCell id="71" style="shape=tableRow;horizontal=0;startSize=0;swimlaneHead=0;swimlaneBody=0;top=0;left=0;bottom=0;right=0;collapsible=0;dropTarget=0;fillColor=none;points=[[0,0.5],[1,0.5]];portConstraint=eastwest;" vertex="1" parent="39">
                    <mxGeometry y="198" width="610" height="102" as="geometry"/>
                </mxCell>
                <mxCell id="72" style="shape=partialRectangle;html=1;whiteSpace=wrap;connectable=0;fillColor=none;top=0;left=0;bottom=0;right=0;overflow=hidden;" vertex="1" visible="0" parent="71">
                    <mxGeometry width="67" height="102" as="geometry">
                        <mxRectangle width="67" height="102" as="alternateBounds"/>
                    </mxGeometry>
                </mxCell>
                <mxCell id="73" value="フェニー" style="shape=partialRectangle;html=1;whiteSpace=wrap;connectable=0;fillColor=none;top=0;left=0;bottom=0;right=0;overflow=hidden;align=left;" vertex="1" parent="71">
                    <mxGeometry x="67" width="103" height="102" as="geometry">
                        <mxRectangle width="103" height="102" as="alternateBounds"/>
                    </mxGeometry>
                </mxCell>
                <mxCell id="74" value="&lt;span style=&quot;&quot;&gt;アビダメ、耐久など&lt;br&gt;他キャラは奥義を打てないことが多いのでFC稼ぎキャラでもある&lt;br&gt;自動復活すると耐久力があがるので早めに発動させたい&lt;br&gt;&lt;/span&gt;" style="shape=partialRectangle;html=1;whiteSpace=wrap;connectable=0;fillColor=none;top=0;left=0;bottom=0;right=0;overflow=hidden;pointerEvents=1;align=left;" vertex="1" parent="71">
                    <mxGeometry x="170" width="263" height="102" as="geometry">
                        <mxRectangle width="263" height="102" as="alternateBounds"/>
                    </mxGeometry>
                </mxCell>
                <mxCell id="75" value="&lt;span style=&quot;text-align: left;&quot;&gt;連撃&lt;/span&gt;" style="shape=partialRectangle;html=1;whiteSpace=wrap;connectable=0;fillColor=none;top=0;left=0;bottom=0;right=0;overflow=hidden;pointerEvents=1;" vertex="1" parent="71">
                    <mxGeometry x="433" width="47" height="102" as="geometry">
                        <mxRectangle width="47" height="102" as="alternateBounds"/>
                    </mxGeometry>
                </mxCell>
                <mxCell id="76" value="&lt;span style=&quot;text-align: left;&quot;&gt;なし&lt;/span&gt;" style="shape=partialRectangle;html=1;whiteSpace=wrap;connectable=0;fillColor=none;top=0;left=0;bottom=0;right=0;overflow=hidden;pointerEvents=1;" vertex="1" parent="71">
                    <mxGeometry x="480" width="70" height="102" as="geometry">
                        <mxRectangle width="70" height="102" as="alternateBounds"/>
                    </mxGeometry>
                </mxCell>
                <mxCell id="92" value="耐久系は控えめ、&lt;br&gt;敵対心UP" style="shape=partialRectangle;html=1;whiteSpace=wrap;connectable=0;fillColor=none;top=0;left=0;bottom=0;right=0;overflow=hidden;pointerEvents=1;" vertex="1" parent="71">
                    <mxGeometry x="550" width="60" height="102" as="geometry">
                        <mxRectangle width="60" height="102" as="alternateBounds"/>
                    </mxGeometry>
                </mxCell>
                <mxCell id="77" style="shape=tableRow;horizontal=0;startSize=0;swimlaneHead=0;swimlaneBody=0;top=0;left=0;bottom=0;right=0;collapsible=0;dropTarget=0;fillColor=none;points=[[0,0.5],[1,0.5]];portConstraint=eastwest;" vertex="1" parent="39">
                    <mxGeometry y="300" width="610" height="69" as="geometry"/>
                </mxCell>
                <mxCell id="78" value="サブ" style="shape=partialRectangle;html=1;whiteSpace=wrap;connectable=0;fillColor=none;top=0;left=0;bottom=0;right=0;overflow=hidden;rowspan=2;colspan=1;" vertex="1" parent="77">
                    <mxGeometry width="67" height="138" as="geometry">
                        <mxRectangle width="67" height="69" as="alternateBounds"/>
                    </mxGeometry>
                </mxCell>
                <mxCell id="79" value="アラナン" style="shape=partialRectangle;html=1;whiteSpace=wrap;connectable=0;fillColor=none;top=0;left=0;bottom=0;right=0;overflow=hidden;align=left;" vertex="1" parent="77">
                    <mxGeometry x="67" width="103" height="69" as="geometry">
                        <mxRectangle width="103" height="69" as="alternateBounds"/>
                    </mxGeometry>
                </mxCell>
                <mxCell id="80" value="&lt;span style=&quot;&quot;&gt;基本出ない想定。出た場合はさっさとバースト&lt;/span&gt;" style="shape=partialRectangle;html=1;whiteSpace=wrap;connectable=0;fillColor=none;top=0;left=0;bottom=0;right=0;overflow=hidden;pointerEvents=1;align=left;" vertex="1" parent="77">
                    <mxGeometry x="170" width="263" height="69" as="geometry">
                        <mxRectangle width="263" height="69" as="alternateBounds"/>
                    </mxGeometry>
                </mxCell>
                <mxCell id="81" value="&lt;span style=&quot;text-align: left;&quot;&gt;任意&lt;/span&gt;" style="shape=partialRectangle;html=1;whiteSpace=wrap;connectable=0;fillColor=none;top=0;left=0;bottom=0;right=0;overflow=hidden;pointerEvents=1;" vertex="1" parent="77">
                    <mxGeometry x="433" width="47" height="69" as="geometry">
                        <mxRectangle width="47" height="69" as="alternateBounds"/>
                    </mxGeometry>
                </mxCell>
                <mxCell id="82" value="&lt;span style=&quot;text-align: left;&quot;&gt;なし&lt;/span&gt;" style="shape=partialRectangle;html=1;whiteSpace=wrap;connectable=0;fillColor=none;top=0;left=0;bottom=0;right=0;overflow=hidden;pointerEvents=1;" vertex="1" parent="77">
                    <mxGeometry x="480" width="70" height="69" as="geometry">
                        <mxRectangle width="70" height="69" as="alternateBounds"/>
                    </mxGeometry>
                </mxCell>
                <mxCell id="93" style="shape=partialRectangle;html=1;whiteSpace=wrap;connectable=0;fillColor=none;top=0;left=0;bottom=0;right=0;overflow=hidden;pointerEvents=1;" vertex="1" parent="77">
                    <mxGeometry x="550" width="60" height="69" as="geometry">
                        <mxRectangle width="60" height="69" as="alternateBounds"/>
                    </mxGeometry>
                </mxCell>
                <mxCell id="83" style="shape=tableRow;horizontal=0;startSize=0;swimlaneHead=0;swimlaneBody=0;top=0;left=0;bottom=0;right=0;collapsible=0;dropTarget=0;fillColor=none;points=[[0,0.5],[1,0.5]];portConstraint=eastwest;" vertex="1" parent="39">
                    <mxGeometry y="369" width="610" height="69" as="geometry"/>
                </mxCell>
                <mxCell id="84" style="shape=partialRectangle;html=1;whiteSpace=wrap;connectable=0;fillColor=none;top=0;left=0;bottom=0;right=0;overflow=hidden;" vertex="1" visible="0" parent="83">
                    <mxGeometry width="67" height="69" as="geometry">
                        <mxRectangle width="67" height="69" as="alternateBounds"/>
                    </mxGeometry>
                </mxCell>
                <mxCell id="85" value="ミカエル" style="shape=partialRectangle;html=1;whiteSpace=wrap;connectable=0;fillColor=none;top=0;left=0;bottom=0;right=0;overflow=hidden;align=left;" vertex="1" parent="83">
                    <mxGeometry x="67" width="103" height="69" as="geometry">
                        <mxRectangle width="103" height="69" as="alternateBounds"/>
                    </mxGeometry>
                </mxCell>
                <mxCell id="86" value="&lt;span style=&quot;&quot;&gt;加護ブースト目的&lt;/span&gt;&lt;br style=&quot;&quot;&gt;&lt;span style=&quot;&quot;&gt;基本表には出ない&lt;/span&gt;" style="shape=partialRectangle;html=1;whiteSpace=wrap;connectable=0;fillColor=none;top=0;left=0;bottom=0;right=0;overflow=hidden;pointerEvents=1;align=left;" vertex="1" parent="83">
                    <mxGeometry x="170" width="263" height="69" as="geometry">
                        <mxRectangle width="263" height="69" as="alternateBounds"/>
                    </mxGeometry>
                </mxCell>
                <mxCell id="87" value="&lt;span style=&quot;text-align: left;&quot;&gt;任意&lt;/span&gt;" style="shape=partialRectangle;html=1;whiteSpace=wrap;connectable=0;fillColor=none;top=0;left=0;bottom=0;right=0;overflow=hidden;pointerEvents=1;" vertex="1" parent="83">
                    <mxGeometry x="433" width="47" height="69" as="geometry">
                        <mxRectangle width="47" height="69" as="alternateBounds"/>
                    </mxGeometry>
                </mxCell>
                <mxCell id="88" value="&lt;span style=&quot;text-align: left;&quot;&gt;なし&lt;/span&gt;" style="shape=partialRectangle;html=1;whiteSpace=wrap;connectable=0;fillColor=none;top=0;left=0;bottom=0;right=0;overflow=hidden;pointerEvents=1;" vertex="1" parent="83">
                    <mxGeometry x="480" width="70" height="69" as="geometry">
                        <mxRectangle width="70" height="69" as="alternateBounds"/>
                    </mxGeometry>
                </mxCell>
                <mxCell id="94" style="shape=partialRectangle;html=1;whiteSpace=wrap;connectable=0;fillColor=none;top=0;left=0;bottom=0;right=0;overflow=hidden;pointerEvents=1;" vertex="1" parent="83">
                    <mxGeometry x="550" width="60" height="69" as="geometry">
                        <mxRectangle width="60" height="69" as="alternateBounds"/>
                    </mxGeometry>
                </mxCell>
                <mxCell id="52" value="" style="shape=table;html=1;whiteSpace=wrap;startSize=0;container=1;collapsible=0;childLayout=tableLayout;" vertex="1" parent="1">
                    <mxGeometry x="20" y="120" width="450" height="220" as="geometry"/>
                </mxCell>
                <mxCell id="53" value="" style="shape=tableRow;horizontal=0;startSize=0;swimlaneHead=0;swimlaneBody=0;top=0;left=0;bottom=0;right=0;collapsible=0;dropTarget=0;fillColor=none;points=[[0,0.5],[1,0.5]];portConstraint=eastwest;" vertex="1" parent="52">
                    <mxGeometry width="450" height="50" as="geometry"/>
                </mxCell>
                <mxCell id="54" value="ジョブ&lt;br&gt;" style="shape=partialRectangle;html=1;whiteSpace=wrap;connectable=0;fillColor=none;top=0;left=0;bottom=0;right=0;overflow=hidden;" vertex="1" parent="53">
                    <mxGeometry width="90" height="50" as="geometry">
                        <mxRectangle width="90" height="50" as="alternateBounds"/>
                    </mxGeometry>
                </mxCell>
                <mxCell id="55" value="マナダイバー" style="shape=partialRectangle;html=1;whiteSpace=wrap;connectable=0;fillColor=none;top=0;left=0;bottom=0;right=0;overflow=hidden;align=left;" vertex="1" parent="53">
                    <mxGeometry x="90" width="160" height="50" as="geometry">
                        <mxRectangle width="160" height="50" as="alternateBounds"/>
                    </mxGeometry>
                </mxCell>
                <mxCell id="56" value="&lt;span style=&quot;&quot;&gt;ダメアビで予兆解除を狙う&lt;br&gt;&lt;/span&gt;" style="shape=partialRectangle;html=1;whiteSpace=wrap;connectable=0;fillColor=none;top=0;left=0;bottom=0;right=0;overflow=hidden;align=left;" vertex="1" parent="53">
                    <mxGeometry x="250" width="200" height="50" as="geometry">
                        <mxRectangle width="200" height="50" as="alternateBounds"/>
                    </mxGeometry>
                </mxCell>
                <mxCell id="326" style="shape=tableRow;horizontal=0;startSize=0;swimlaneHead=0;swimlaneBody=0;top=0;left=0;bottom=0;right=0;collapsible=0;dropTarget=0;fillColor=none;points=[[0,0.5],[1,0.5]];portConstraint=eastwest;" vertex="1" parent="52">
                    <mxGeometry y="50" width="450" height="50" as="geometry"/>
                </mxCell>
                <mxCell id="327" value="特殊装備" style="shape=partialRectangle;html=1;whiteSpace=wrap;connectable=0;fillColor=none;top=0;left=0;bottom=0;right=0;overflow=hidden;" vertex="1" parent="326">
                    <mxGeometry width="90" height="50" as="geometry">
                        <mxRectangle width="90" height="50" as="alternateBounds"/>
                    </mxGeometry>
                </mxCell>
                <mxCell id="328" value="ウロボロス" style="shape=partialRectangle;html=1;whiteSpace=wrap;connectable=0;fillColor=none;top=0;left=0;bottom=0;right=0;overflow=hidden;align=left;" vertex="1" parent="326">
                    <mxGeometry x="90" width="160" height="50" as="geometry">
                        <mxRectangle width="160" height="50" as="alternateBounds"/>
                    </mxGeometry>
                </mxCell>
                <mxCell id="329" value="ヒット数、アビダメなど" style="shape=partialRectangle;html=1;whiteSpace=wrap;connectable=0;fillColor=none;top=0;left=0;bottom=0;right=0;overflow=hidden;align=left;" vertex="1" parent="326">
                    <mxGeometry x="250" width="200" height="50" as="geometry">
                        <mxRectangle width="200" height="50" as="alternateBounds"/>
                    </mxGeometry>
                </mxCell>
                <mxCell id="57" value="" style="shape=tableRow;horizontal=0;startSize=0;swimlaneHead=0;swimlaneBody=0;top=0;left=0;bottom=0;right=0;collapsible=0;dropTarget=0;fillColor=none;points=[[0,0.5],[1,0.5]];portConstraint=eastwest;" vertex="1" parent="52">
                    <mxGeometry y="100" width="450" height="40" as="geometry"/>
                </mxCell>
                <mxCell id="58" value="&lt;span style=&quot;text-align: left;&quot;&gt;アビリティ&lt;/span&gt;" style="shape=partialRectangle;html=1;whiteSpace=wrap;connectable=0;fillColor=none;top=0;left=0;bottom=0;right=0;overflow=hidden;rowspan=3;colspan=1;" vertex="1" parent="57">
                    <mxGeometry width="90" height="120" as="geometry">
                        <mxRectangle width="90" height="40" as="alternateBounds"/>
                    </mxGeometry>
                </mxCell>
                <mxCell id="59" value="&lt;span style=&quot;&quot;&gt;シークレットトライアド&lt;/span&gt;" style="shape=partialRectangle;html=1;whiteSpace=wrap;connectable=0;fillColor=none;top=0;left=0;bottom=0;right=0;overflow=hidden;align=left;" vertex="1" parent="57">
                    <mxGeometry x="90" width="160" height="40" as="geometry">
                        <mxRectangle width="160" height="40" as="alternateBounds"/>
                    </mxGeometry>
                </mxCell>
                <mxCell id="60" value="&lt;span style=&quot;&quot;&gt;追撃数、刻印による火力貢献&lt;/span&gt;" style="shape=partialRectangle;html=1;whiteSpace=wrap;connectable=0;fillColor=none;top=0;left=0;bottom=0;right=0;overflow=hidden;align=left;" vertex="1" parent="57">
                    <mxGeometry x="250" width="200" height="40" as="geometry">
                        <mxRectangle width="200" height="40" as="alternateBounds"/>
                    </mxGeometry>
                </mxCell>
                <mxCell id="322" style="shape=tableRow;horizontal=0;startSize=0;swimlaneHead=0;swimlaneBody=0;top=0;left=0;bottom=0;right=0;collapsible=0;dropTarget=0;fillColor=none;points=[[0,0.5],[1,0.5]];portConstraint=eastwest;" vertex="1" parent="52">
                    <mxGeometry y="140" width="450" height="40" as="geometry"/>
                </mxCell>
                <mxCell id="323" style="shape=partialRectangle;html=1;whiteSpace=wrap;connectable=0;fillColor=none;top=0;left=0;bottom=0;right=0;overflow=hidden;" vertex="1" visible="0" parent="322">
                    <mxGeometry width="90" height="40" as="geometry">
                        <mxRectangle width="90" height="40" as="alternateBounds"/>
                    </mxGeometry>
                </mxCell>
                <mxCell id="324" value="ワイルドマギカ" style="shape=partialRectangle;html=1;whiteSpace=wrap;connectable=0;fillColor=none;top=0;left=0;bottom=0;right=0;overflow=hidden;align=left;" vertex="1" parent="322">
                    <mxGeometry x="90" width="160" height="40" as="geometry">
                        <mxRectangle width="160" height="40" as="alternateBounds"/>
                    </mxGeometry>
                </mxCell>
                <mxCell id="325" value="アビダメ、行動回数追加" style="shape=partialRectangle;html=1;whiteSpace=wrap;connectable=0;fillColor=none;top=0;left=0;bottom=0;right=0;overflow=hidden;align=left;" vertex="1" parent="322">
                    <mxGeometry x="250" width="200" height="40" as="geometry">
                        <mxRectangle width="200" height="40" as="alternateBounds"/>
                    </mxGeometry>
                </mxCell>
                <mxCell id="318" style="shape=tableRow;horizontal=0;startSize=0;swimlaneHead=0;swimlaneBody=0;top=0;left=0;bottom=0;right=0;collapsible=0;dropTarget=0;fillColor=none;points=[[0,0.5],[1,0.5]];portConstraint=eastwest;" vertex="1" parent="52">
                    <mxGeometry y="180" width="450" height="40" as="geometry"/>
                </mxCell>
                <mxCell id="319" style="shape=partialRectangle;html=1;whiteSpace=wrap;connectable=0;fillColor=none;top=0;left=0;bottom=0;right=0;overflow=hidden;" vertex="1" visible="0" parent="318">
                    <mxGeometry width="90" height="40" as="geometry">
                        <mxRectangle width="90" height="40" as="alternateBounds"/>
                    </mxGeometry>
                </mxCell>
                <mxCell id="320" value="クリアオール" style="shape=partialRectangle;html=1;whiteSpace=wrap;connectable=0;fillColor=none;top=0;left=0;bottom=0;right=0;overflow=hidden;align=left;" vertex="1" parent="318">
                    <mxGeometry x="90" width="160" height="40" as="geometry">
                        <mxRectangle width="160" height="40" as="alternateBounds"/>
                    </mxGeometry>
                </mxCell>
                <mxCell id="321" value="緑林檎解除、暗闇や連撃しないデバフ対処" style="shape=partialRectangle;html=1;whiteSpace=wrap;connectable=0;fillColor=none;top=0;left=0;bottom=0;right=0;overflow=hidden;align=left;" vertex="1" parent="318">
                    <mxGeometry x="250" width="200" height="40" as="geometry">
                        <mxRectangle width="200" height="40" as="alternateBounds"/>
                    </mxGeometry>
                </mxCell>
                <mxCell id="95" value="" style="shape=table;html=1;whiteSpace=wrap;startSize=0;container=1;collapsible=0;childLayout=tableLayout;" vertex="1" parent="1">
                    <mxGeometry x="660" y="140" width="420" height="710.0000000000005" as="geometry"/>
                </mxCell>
                <mxCell id="96" value="" style="shape=tableRow;horizontal=0;startSize=0;swimlaneHead=0;swimlaneBody=0;top=0;left=0;bottom=0;right=0;collapsible=0;dropTarget=0;fillColor=none;points=[[0,0.5],[1,0.5]];portConstraint=eastwest;" vertex="1" parent="95">
                    <mxGeometry width="420" height="40" as="geometry"/>
                </mxCell>
                <mxCell id="97" value="" style="shape=partialRectangle;html=1;whiteSpace=wrap;connectable=0;fillColor=none;top=0;left=0;bottom=0;right=0;overflow=hidden;" vertex="1" parent="96">
                    <mxGeometry width="106" height="40" as="geometry">
                        <mxRectangle width="106" height="40" as="alternateBounds"/>
                    </mxGeometry>
                </mxCell>
                <mxCell id="98" value="武器名" style="shape=partialRectangle;html=1;whiteSpace=wrap;connectable=0;fillColor=none;top=0;left=0;bottom=0;right=0;overflow=hidden;" vertex="1" parent="96">
                    <mxGeometry x="106" width="104" height="40" as="geometry">
                        <mxRectangle width="104" height="40" as="alternateBounds"/>
                    </mxGeometry>
                </mxCell>
                <mxCell id="99" value="追加スキル" style="shape=partialRectangle;html=1;whiteSpace=wrap;connectable=0;fillColor=none;top=0;left=0;bottom=0;right=0;overflow=hidden;" vertex="1" parent="96">
                    <mxGeometry x="210" width="106" height="40" as="geometry">
                        <mxRectangle width="106" height="40" as="alternateBounds"/>
                    </mxGeometry>
                </mxCell>
                <mxCell id="108" value="解説" style="shape=partialRectangle;html=1;whiteSpace=wrap;connectable=0;fillColor=none;top=0;left=0;bottom=0;right=0;overflow=hidden;" vertex="1" parent="96">
                    <mxGeometry x="316" width="104" height="40" as="geometry">
                        <mxRectangle width="104" height="40" as="alternateBounds"/>
                    </mxGeometry>
                </mxCell>
                <mxCell id="100" value="" style="shape=tableRow;horizontal=0;startSize=0;swimlaneHead=0;swimlaneBody=0;top=0;left=0;bottom=0;right=0;collapsible=0;dropTarget=0;fillColor=none;points=[[0,0.5],[1,0.5]];portConstraint=eastwest;" vertex="1" parent="95">
                    <mxGeometry y="40" width="420" height="40" as="geometry"/>
                </mxCell>
                <mxCell id="101" value="メイン" style="shape=partialRectangle;html=1;whiteSpace=wrap;connectable=0;fillColor=none;top=0;left=0;bottom=0;right=0;overflow=hidden;" vertex="1" parent="100">
                    <mxGeometry width="106" height="40" as="geometry">
                        <mxRectangle width="106" height="40" as="alternateBounds"/>
                    </mxGeometry>
                </mxCell>
                <mxCell id="102" value="フェニー杖" style="shape=partialRectangle;html=1;whiteSpace=wrap;connectable=0;fillColor=none;top=0;left=0;bottom=0;right=0;overflow=hidden;align=left;" vertex="1" parent="100">
                    <mxGeometry x="106" width="104" height="40" as="geometry">
                        <mxRectangle width="104" height="40" as="alternateBounds"/>
                    </mxGeometry>
                </mxCell>
                <mxCell id="103" value="" style="shape=partialRectangle;html=1;whiteSpace=wrap;connectable=0;fillColor=none;top=0;left=0;bottom=0;right=0;overflow=hidden;align=left;" vertex="1" parent="100">
                    <mxGeometry x="210" width="106" height="40" as="geometry">
                        <mxRectangle width="106" height="40" as="alternateBounds"/>
                    </mxGeometry>
                </mxCell>
                <mxCell id="109" value="火傷稼ぎ、回復、アビダメ" style="shape=partialRectangle;html=1;whiteSpace=wrap;connectable=0;fillColor=none;top=0;left=0;bottom=0;right=0;overflow=hidden;align=left;" vertex="1" parent="100">
                    <mxGeometry x="316" width="104" height="40" as="geometry">
                        <mxRectangle width="104" height="40" as="alternateBounds"/>
                    </mxGeometry>
                </mxCell>
                <mxCell id="104" value="" style="shape=tableRow;horizontal=0;startSize=0;swimlaneHead=0;swimlaneBody=0;top=0;left=0;bottom=0;right=0;collapsible=0;dropTarget=0;fillColor=none;points=[[0,0.5],[1,0.5]];portConstraint=eastwest;" vertex="1" parent="95">
                    <mxGeometry y="80" width="420" height="40" as="geometry"/>
                </mxCell>
                <mxCell id="105" value="通常武器" style="shape=partialRectangle;html=1;whiteSpace=wrap;connectable=0;fillColor=none;top=0;left=0;bottom=0;right=0;overflow=hidden;rowspan=9;colspan=1;" vertex="1" parent="104">
                    <mxGeometry width="106" height="480" as="geometry">
                        <mxRectangle width="106" height="40" as="alternateBounds"/>
                    </mxGeometry>
                </mxCell>
                <mxCell id="106" value="ミカ斧" style="shape=partialRectangle;html=1;whiteSpace=wrap;connectable=0;fillColor=none;top=0;left=0;bottom=0;right=0;overflow=hidden;align=left;" vertex="1" parent="104">
                    <mxGeometry x="106" width="104" height="40" as="geometry">
                        <mxRectangle width="104" height="40" as="alternateBounds"/>
                    </mxGeometry>
                </mxCell>
                <mxCell id="107" value="" style="shape=partialRectangle;html=1;whiteSpace=wrap;connectable=0;fillColor=none;top=0;left=0;bottom=0;right=0;overflow=hidden;pointerEvents=1;align=left;" vertex="1" parent="104">
                    <mxGeometry x="210" width="106" height="40" as="geometry">
                        <mxRectangle width="106" height="40" as="alternateBounds"/>
                    </mxGeometry>
                </mxCell>
                <mxCell id="110" value="与ダメ" style="shape=partialRectangle;html=1;whiteSpace=wrap;connectable=0;fillColor=none;top=0;left=0;bottom=0;right=0;overflow=hidden;pointerEvents=1;align=left;" vertex="1" parent="104">
                    <mxGeometry x="316" width="104" height="40" as="geometry">
                        <mxRectangle width="104" height="40" as="alternateBounds"/>
                    </mxGeometry>
                </mxCell>
                <mxCell id="111" style="shape=tableRow;horizontal=0;startSize=0;swimlaneHead=0;swimlaneBody=0;top=0;left=0;bottom=0;right=0;collapsible=0;dropTarget=0;fillColor=none;points=[[0,0.5],[1,0.5]];portConstraint=eastwest;" vertex="1" parent="95">
                    <mxGeometry y="120" width="420" height="60" as="geometry"/>
                </mxCell>
                <mxCell id="112" style="shape=partialRectangle;html=1;whiteSpace=wrap;connectable=0;fillColor=none;top=0;left=0;bottom=0;right=0;overflow=hidden;" vertex="1" visible="0" parent="111">
                    <mxGeometry width="106" height="60" as="geometry">
                        <mxRectangle width="106" height="60" as="alternateBounds"/>
                    </mxGeometry>
                </mxCell>
                <mxCell id="113" value="ミカ斧" style="shape=partialRectangle;html=1;whiteSpace=wrap;connectable=0;fillColor=none;top=0;left=0;bottom=0;right=0;overflow=hidden;align=left;" vertex="1" parent="111">
                    <mxGeometry x="106" width="104" height="60" as="geometry">
                        <mxRectangle width="104" height="60" as="alternateBounds"/>
                    </mxGeometry>
                </mxCell>
                <mxCell id="114" style="shape=partialRectangle;html=1;whiteSpace=wrap;connectable=0;fillColor=none;top=0;left=0;bottom=0;right=0;overflow=hidden;pointerEvents=1;align=left;" vertex="1" parent="111">
                    <mxGeometry x="210" width="106" height="60" as="geometry">
                        <mxRectangle width="106" height="60" as="alternateBounds"/>
                    </mxGeometry>
                </mxCell>
                <mxCell id="115" value="与ダメ&lt;br&gt;極まると2本めが抜ける場合がある" style="shape=partialRectangle;html=1;whiteSpace=wrap;connectable=0;fillColor=none;top=0;left=0;bottom=0;right=0;overflow=hidden;pointerEvents=1;align=left;" vertex="1" parent="111">
                    <mxGeometry x="316" width="104" height="60" as="geometry">
                        <mxRectangle width="104" height="60" as="alternateBounds"/>
                    </mxGeometry>
                </mxCell>
                <mxCell id="116" style="shape=tableRow;horizontal=0;startSize=0;swimlaneHead=0;swimlaneBody=0;top=0;left=0;bottom=0;right=0;collapsible=0;dropTarget=0;fillColor=none;points=[[0,0.5],[1,0.5]];portConstraint=eastwest;" vertex="1" parent="95">
                    <mxGeometry y="180" width="420" height="60" as="geometry"/>
                </mxCell>
                <mxCell id="117" style="shape=partialRectangle;html=1;whiteSpace=wrap;connectable=0;fillColor=none;top=0;left=0;bottom=0;right=0;overflow=hidden;" vertex="1" visible="0" parent="116">
                    <mxGeometry width="106" height="60" as="geometry">
                        <mxRectangle width="106" height="60" as="alternateBounds"/>
                    </mxGeometry>
                </mxCell>
                <mxCell id="118" value="リミパー剣" style="shape=partialRectangle;html=1;whiteSpace=wrap;connectable=0;fillColor=none;top=0;left=0;bottom=0;right=0;overflow=hidden;align=left;" vertex="1" parent="116">
                    <mxGeometry x="106" width="104" height="60" as="geometry">
                        <mxRectangle width="104" height="60" as="alternateBounds"/>
                    </mxGeometry>
                </mxCell>
                <mxCell id="119" style="shape=partialRectangle;html=1;whiteSpace=wrap;connectable=0;fillColor=none;top=0;left=0;bottom=0;right=0;overflow=hidden;pointerEvents=1;align=left;" vertex="1" parent="116">
                    <mxGeometry x="210" width="106" height="60" as="geometry">
                        <mxRectangle width="106" height="60" as="alternateBounds"/>
                    </mxGeometry>
                </mxCell>
                <mxCell id="120" value="防御、特殊上限&lt;br&gt;ムゲン剣と合わせて剣4にする" style="shape=partialRectangle;html=1;whiteSpace=wrap;connectable=0;fillColor=none;top=0;left=0;bottom=0;right=0;overflow=hidden;pointerEvents=1;align=left;" vertex="1" parent="116">
                    <mxGeometry x="316" width="104" height="60" as="geometry">
                        <mxRectangle width="104" height="60" as="alternateBounds"/>
                    </mxGeometry>
                </mxCell>
                <mxCell id="121" style="shape=tableRow;horizontal=0;startSize=0;swimlaneHead=0;swimlaneBody=0;top=0;left=0;bottom=0;right=0;collapsible=0;dropTarget=0;fillColor=none;points=[[0,0.5],[1,0.5]];portConstraint=eastwest;" vertex="1" parent="95">
                    <mxGeometry y="240" width="420" height="40" as="geometry"/>
                </mxCell>
                <mxCell id="122" style="shape=partialRectangle;html=1;whiteSpace=wrap;connectable=0;fillColor=none;top=0;left=0;bottom=0;right=0;overflow=hidden;" vertex="1" visible="0" parent="121">
                    <mxGeometry width="106" height="40" as="geometry">
                        <mxRectangle width="106" height="40" as="alternateBounds"/>
                    </mxGeometry>
                </mxCell>
                <mxCell id="123" value="リミパー剣" style="shape=partialRectangle;html=1;whiteSpace=wrap;connectable=0;fillColor=none;top=0;left=0;bottom=0;right=0;overflow=hidden;align=left;" vertex="1" parent="121">
                    <mxGeometry x="106" width="104" height="40" as="geometry">
                        <mxRectangle width="104" height="40" as="alternateBounds"/>
                    </mxGeometry>
                </mxCell>
                <mxCell id="124" style="shape=partialRectangle;html=1;whiteSpace=wrap;connectable=0;fillColor=none;top=0;left=0;bottom=0;right=0;overflow=hidden;pointerEvents=1;align=left;" vertex="1" parent="121">
                    <mxGeometry x="210" width="106" height="40" as="geometry">
                        <mxRectangle width="106" height="40" as="alternateBounds"/>
                    </mxGeometry>
                </mxCell>
                <mxCell id="125" value="防御、特殊上限" style="shape=partialRectangle;html=1;whiteSpace=wrap;connectable=0;fillColor=none;top=0;left=0;bottom=0;right=0;overflow=hidden;pointerEvents=1;align=left;" vertex="1" parent="121">
                    <mxGeometry x="316" width="104" height="40" as="geometry">
                        <mxRectangle width="104" height="40" as="alternateBounds"/>
                    </mxGeometry>
                </mxCell>
                <mxCell id="126" style="shape=tableRow;horizontal=0;startSize=0;swimlaneHead=0;swimlaneBody=0;top=0;left=0;bottom=0;right=0;collapsible=0;dropTarget=0;fillColor=none;points=[[0,0.5],[1,0.5]];portConstraint=eastwest;" vertex="1" parent="95">
                    <mxGeometry y="280" width="420" height="60" as="geometry"/>
                </mxCell>
                <mxCell id="127" style="shape=partialRectangle;html=1;whiteSpace=wrap;connectable=0;fillColor=none;top=0;left=0;bottom=0;right=0;overflow=hidden;" vertex="1" visible="0" parent="126">
                    <mxGeometry width="106" height="60" as="geometry">
                        <mxRectangle width="106" height="60" as="alternateBounds"/>
                    </mxGeometry>
                </mxCell>
                <mxCell id="128" value="リミゼタ槍" style="shape=partialRectangle;html=1;whiteSpace=wrap;connectable=0;fillColor=none;top=0;left=0;bottom=0;right=0;overflow=hidden;align=left;" vertex="1" parent="126">
                    <mxGeometry x="106" width="104" height="60" as="geometry">
                        <mxRectangle width="104" height="60" as="alternateBounds"/>
                    </mxGeometry>
                </mxCell>
                <mxCell id="129" style="shape=partialRectangle;html=1;whiteSpace=wrap;connectable=0;fillColor=none;top=0;left=0;bottom=0;right=0;overflow=hidden;pointerEvents=1;align=left;" vertex="1" parent="126">
                    <mxGeometry x="210" width="106" height="60" as="geometry">
                        <mxRectangle width="106" height="60" as="alternateBounds"/>
                    </mxGeometry>
                </mxCell>
                <mxCell id="130" value="ヒット数&lt;br&gt;最低1、あれば最大3" style="shape=partialRectangle;html=1;whiteSpace=wrap;connectable=0;fillColor=none;top=0;left=0;bottom=0;right=0;overflow=hidden;pointerEvents=1;align=left;" vertex="1" parent="126">
                    <mxGeometry x="316" width="104" height="60" as="geometry">
                        <mxRectangle width="104" height="60" as="alternateBounds"/>
                    </mxGeometry>
                </mxCell>
                <mxCell id="131" style="shape=tableRow;horizontal=0;startSize=0;swimlaneHead=0;swimlaneBody=0;top=0;left=0;bottom=0;right=0;collapsible=0;dropTarget=0;fillColor=none;points=[[0,0.5],[1,0.5]];portConstraint=eastwest;" vertex="1" parent="95">
                    <mxGeometry y="340" width="420" height="40" as="geometry"/>
                </mxCell>
                <mxCell id="132" style="shape=partialRectangle;html=1;whiteSpace=wrap;connectable=0;fillColor=none;top=0;left=0;bottom=0;right=0;overflow=hidden;" vertex="1" visible="0" parent="131">
                    <mxGeometry width="106" height="40" as="geometry">
                        <mxRectangle width="106" height="40" as="alternateBounds"/>
                    </mxGeometry>
                </mxCell>
                <mxCell id="133" value="クビラ槍" style="shape=partialRectangle;html=1;whiteSpace=wrap;connectable=0;fillColor=none;top=0;left=0;bottom=0;right=0;overflow=hidden;align=left;" vertex="1" parent="131">
                    <mxGeometry x="106" width="104" height="40" as="geometry">
                        <mxRectangle width="104" height="40" as="alternateBounds"/>
                    </mxGeometry>
                </mxCell>
                <mxCell id="134" style="shape=partialRectangle;html=1;whiteSpace=wrap;connectable=0;fillColor=none;top=0;left=0;bottom=0;right=0;overflow=hidden;pointerEvents=1;align=left;" vertex="1" parent="131">
                    <mxGeometry x="210" width="106" height="40" as="geometry">
                        <mxRectangle width="106" height="40" as="alternateBounds"/>
                    </mxGeometry>
                </mxCell>
                <mxCell id="135" value="アビダメが多いので1は編成したい" style="shape=partialRectangle;html=1;whiteSpace=wrap;connectable=0;fillColor=none;top=0;left=0;bottom=0;right=0;overflow=hidden;pointerEvents=1;align=left;" vertex="1" parent="131">
                    <mxGeometry x="316" width="104" height="40" as="geometry">
                        <mxRectangle width="104" height="40" as="alternateBounds"/>
                    </mxGeometry>
                </mxCell>
                <mxCell id="136" style="shape=tableRow;horizontal=0;startSize=0;swimlaneHead=0;swimlaneBody=0;top=0;left=0;bottom=0;right=0;collapsible=0;dropTarget=0;fillColor=none;points=[[0,0.5],[1,0.5]];portConstraint=eastwest;" vertex="1" parent="95">
                    <mxGeometry y="380" width="420" height="40" as="geometry"/>
                </mxCell>
                <mxCell id="137" style="shape=partialRectangle;html=1;whiteSpace=wrap;connectable=0;fillColor=none;top=0;left=0;bottom=0;right=0;overflow=hidden;" vertex="1" visible="0" parent="136">
                    <mxGeometry width="106" height="40" as="geometry">
                        <mxRectangle width="106" height="40" as="alternateBounds"/>
                    </mxGeometry>
                </mxCell>
                <mxCell id="138" value="終末（神）220↑" style="shape=partialRectangle;html=1;whiteSpace=wrap;connectable=0;fillColor=none;top=0;left=0;bottom=0;right=0;overflow=hidden;align=left;" vertex="1" parent="136">
                    <mxGeometry x="106" width="104" height="40" as="geometry">
                        <mxRectangle width="104" height="40" as="alternateBounds"/>
                    </mxGeometry>
                </mxCell>
                <mxCell id="139" value="通常上限&lt;br&gt;極破" style="shape=partialRectangle;html=1;whiteSpace=wrap;connectable=0;fillColor=none;top=0;left=0;bottom=0;right=0;overflow=hidden;pointerEvents=1;align=left;" vertex="1" parent="136">
                    <mxGeometry x="210" width="106" height="40" as="geometry">
                        <mxRectangle width="106" height="40" as="alternateBounds"/>
                    </mxGeometry>
                </mxCell>
                <mxCell id="140" style="shape=partialRectangle;html=1;whiteSpace=wrap;connectable=0;fillColor=none;top=0;left=0;bottom=0;right=0;overflow=hidden;pointerEvents=1;align=left;" vertex="1" parent="136">
                    <mxGeometry x="316" width="104" height="40" as="geometry">
                        <mxRectangle width="104" height="40" as="alternateBounds"/>
                    </mxGeometry>
                </mxCell>
                <mxCell id="141" style="shape=tableRow;horizontal=0;startSize=0;swimlaneHead=0;swimlaneBody=0;top=0;left=0;bottom=0;right=0;collapsible=0;dropTarget=0;fillColor=none;points=[[0,0.5],[1,0.5]];portConstraint=eastwest;" vertex="1" parent="95">
                    <mxGeometry y="420" width="420" height="100" as="geometry"/>
                </mxCell>
                <mxCell id="142" style="shape=partialRectangle;html=1;whiteSpace=wrap;connectable=0;fillColor=none;top=0;left=0;bottom=0;right=0;overflow=hidden;" vertex="1" visible="0" parent="141">
                    <mxGeometry width="106" height="100" as="geometry">
                        <mxRectangle width="106" height="100" as="alternateBounds"/>
                    </mxGeometry>
                </mxCell>
                <mxCell id="143" value="極星剣" style="shape=partialRectangle;html=1;whiteSpace=wrap;connectable=0;fillColor=none;top=0;left=0;bottom=0;right=0;overflow=hidden;align=left;" vertex="1" parent="141">
                    <mxGeometry x="106" width="104" height="100" as="geometry">
                        <mxRectangle width="104" height="100" as="alternateBounds"/>
                    </mxGeometry>
                </mxCell>
                <mxCell id="144" style="shape=partialRectangle;html=1;whiteSpace=wrap;connectable=0;fillColor=none;top=0;left=0;bottom=0;right=0;overflow=hidden;pointerEvents=1;align=left;" vertex="1" parent="141">
                    <mxGeometry x="210" width="106" height="100" as="geometry">
                        <mxRectangle width="106" height="100" as="alternateBounds"/>
                    </mxGeometry>
                </mxCell>
                <mxCell id="145" value="パー剣スキルのため剣。&lt;br&gt;もし発動できてるなら杖の方が良い" style="shape=partialRectangle;html=1;whiteSpace=wrap;connectable=0;fillColor=none;top=0;left=0;bottom=0;right=0;overflow=hidden;pointerEvents=1;align=left;" vertex="1" parent="141">
                    <mxGeometry x="316" width="104" height="100" as="geometry">
                        <mxRectangle width="104" height="100" as="alternateBounds"/>
                    </mxGeometry>
                </mxCell>
                <mxCell id="146" style="shape=tableRow;horizontal=0;startSize=0;swimlaneHead=0;swimlaneBody=0;top=0;left=0;bottom=0;right=0;collapsible=0;dropTarget=0;fillColor=none;points=[[0,0.5],[1,0.5]];portConstraint=eastwest;" vertex="1" parent="95">
                    <mxGeometry y="520" width="420" height="40" as="geometry"/>
                </mxCell>
                <mxCell id="147" style="shape=partialRectangle;html=1;whiteSpace=wrap;connectable=0;fillColor=none;top=0;left=0;bottom=0;right=0;overflow=hidden;" vertex="1" visible="0" parent="146">
                    <mxGeometry width="106" height="40" as="geometry">
                        <mxRectangle width="106" height="40" as="alternateBounds"/>
                    </mxGeometry>
                </mxCell>
                <mxCell id="148" value="ムゲン剣" style="shape=partialRectangle;html=1;whiteSpace=wrap;connectable=0;fillColor=none;top=0;left=0;bottom=0;right=0;overflow=hidden;align=left;" vertex="1" parent="146">
                    <mxGeometry x="106" width="104" height="40" as="geometry">
                        <mxRectangle width="104" height="40" as="alternateBounds"/>
                    </mxGeometry>
                </mxCell>
                <mxCell id="149" value="防御or特殊覚醒" style="shape=partialRectangle;html=1;whiteSpace=wrap;connectable=0;fillColor=none;top=0;left=0;bottom=0;right=0;overflow=hidden;pointerEvents=1;align=left;" vertex="1" parent="146">
                    <mxGeometry x="210" width="106" height="40" as="geometry">
                        <mxRectangle width="106" height="40" as="alternateBounds"/>
                    </mxGeometry>
                </mxCell>
                <mxCell id="150" style="shape=partialRectangle;html=1;whiteSpace=wrap;connectable=0;fillColor=none;top=0;left=0;bottom=0;right=0;overflow=hidden;pointerEvents=1;align=left;" vertex="1" parent="146">
                    <mxGeometry x="316" width="104" height="40" as="geometry">
                        <mxRectangle width="104" height="40" as="alternateBounds"/>
                    </mxGeometry>
                </mxCell>
                <mxCell id="161" style="shape=tableRow;horizontal=0;startSize=0;swimlaneHead=0;swimlaneBody=0;top=0;left=0;bottom=0;right=0;collapsible=0;dropTarget=0;fillColor=none;points=[[0,0.5],[1,0.5]];portConstraint=eastwest;" vertex="1" parent="95">
                    <mxGeometry y="560" width="420" height="40" as="geometry"/>
                </mxCell>
                <mxCell id="162" value="アディショナル" style="shape=partialRectangle;html=1;whiteSpace=wrap;connectable=0;fillColor=none;top=0;left=0;bottom=0;right=0;overflow=hidden;rowspan=3;colspan=1;" vertex="1" parent="161">
                    <mxGeometry width="106" height="150" as="geometry">
                        <mxRectangle width="106" height="40" as="alternateBounds"/>
                    </mxGeometry>
                </mxCell>
                <mxCell id="163" value="ドラポンオリジン" style="shape=partialRectangle;html=1;whiteSpace=wrap;connectable=0;fillColor=none;top=0;left=0;bottom=0;right=0;overflow=hidden;align=left;" vertex="1" parent="161">
                    <mxGeometry x="106" width="104" height="40" as="geometry">
                        <mxRectangle width="104" height="40" as="alternateBounds"/>
                    </mxGeometry>
                </mxCell>
                <mxCell id="164" value="神石神威&lt;br&gt;無属性与ダメ" style="shape=partialRectangle;html=1;whiteSpace=wrap;connectable=0;fillColor=none;top=0;left=0;bottom=0;right=0;overflow=hidden;pointerEvents=1;align=left;" vertex="1" parent="161">
                    <mxGeometry x="210" width="106" height="40" as="geometry">
                        <mxRectangle width="106" height="40" as="alternateBounds"/>
                    </mxGeometry>
                </mxCell>
                <mxCell id="165" value="与ダメ" style="shape=partialRectangle;html=1;whiteSpace=wrap;connectable=0;fillColor=none;top=0;left=0;bottom=0;right=0;overflow=hidden;pointerEvents=1;align=left;" vertex="1" parent="161">
                    <mxGeometry x="316" width="104" height="40" as="geometry">
                        <mxRectangle width="104" height="40" as="alternateBounds"/>
                    </mxGeometry>
                </mxCell>
                <mxCell id="156" style="shape=tableRow;horizontal=0;startSize=0;swimlaneHead=0;swimlaneBody=0;top=0;left=0;bottom=0;right=0;collapsible=0;dropTarget=0;fillColor=none;points=[[0,0.5],[1,0.5]];portConstraint=eastwest;" vertex="1" parent="95">
                    <mxGeometry y="600" width="420" height="70" as="geometry"/>
                </mxCell>
                <mxCell id="157" style="shape=partialRectangle;html=1;whiteSpace=wrap;connectable=0;fillColor=none;top=0;left=0;bottom=0;right=0;overflow=hidden;" vertex="1" visible="0" parent="156">
                    <mxGeometry width="106" height="70" as="geometry">
                        <mxRectangle width="106" height="70" as="alternateBounds"/>
                    </mxGeometry>
                </mxCell>
                <mxCell id="158" value="サン刀" style="shape=partialRectangle;html=1;whiteSpace=wrap;connectable=0;fillColor=none;top=0;left=0;bottom=0;right=0;overflow=hidden;align=left;" vertex="1" parent="156">
                    <mxGeometry x="106" width="104" height="70" as="geometry">
                        <mxRectangle width="104" height="70" as="alternateBounds"/>
                    </mxGeometry>
                </mxCell>
                <mxCell id="159" style="shape=partialRectangle;html=1;whiteSpace=wrap;connectable=0;fillColor=none;top=0;left=0;bottom=0;right=0;overflow=hidden;pointerEvents=1;align=left;" vertex="1" parent="156">
                    <mxGeometry x="210" width="106" height="70" as="geometry">
                        <mxRectangle width="106" height="70" as="alternateBounds"/>
                    </mxGeometry>
                </mxCell>
                <mxCell id="160" value="再行動時の回復&lt;br&gt;デビル拳5凸、風ワールド琴で代用可能" style="shape=partialRectangle;html=1;whiteSpace=wrap;connectable=0;fillColor=none;top=0;left=0;bottom=0;right=0;overflow=hidden;pointerEvents=1;align=left;" vertex="1" parent="156">
                    <mxGeometry x="316" width="104" height="70" as="geometry">
                        <mxRectangle width="104" height="70" as="alternateBounds"/>
                    </mxGeometry>
                </mxCell>
                <mxCell id="151" style="shape=tableRow;horizontal=0;startSize=0;swimlaneHead=0;swimlaneBody=0;top=0;left=0;bottom=0;right=0;collapsible=0;dropTarget=0;fillColor=none;points=[[0,0.5],[1,0.5]];portConstraint=eastwest;" vertex="1" parent="95">
                    <mxGeometry y="670" width="420" height="40" as="geometry"/>
                </mxCell>
                <mxCell id="152" style="shape=partialRectangle;html=1;whiteSpace=wrap;connectable=0;fillColor=none;top=0;left=0;bottom=0;right=0;overflow=hidden;" vertex="1" visible="0" parent="151">
                    <mxGeometry width="106" height="40" as="geometry">
                        <mxRectangle width="106" height="40" as="alternateBounds"/>
                    </mxGeometry>
                </mxCell>
                <mxCell id="153" value="オメガ杖" style="shape=partialRectangle;html=1;whiteSpace=wrap;connectable=0;fillColor=none;top=0;left=0;bottom=0;right=0;overflow=hidden;align=left;" vertex="1" parent="151">
                    <mxGeometry x="106" width="104" height="40" as="geometry">
                        <mxRectangle width="104" height="40" as="alternateBounds"/>
                    </mxGeometry>
                </mxCell>
                <mxCell id="154" value="連撃、アビ上限、回復" style="shape=partialRectangle;html=1;whiteSpace=wrap;connectable=0;fillColor=none;top=0;left=0;bottom=0;right=0;overflow=hidden;pointerEvents=1;align=left;" vertex="1" parent="151">
                    <mxGeometry x="210" width="106" height="40" as="geometry">
                        <mxRectangle width="106" height="40" as="alternateBounds"/>
                    </mxGeometry>
                </mxCell>
                <mxCell id="155" value="主、フェニー連撃のため杖必須" style="shape=partialRectangle;html=1;whiteSpace=wrap;connectable=0;fillColor=none;top=0;left=0;bottom=0;right=0;overflow=hidden;pointerEvents=1;align=left;" vertex="1" parent="151">
                    <mxGeometry x="316" width="104" height="40" as="geometry">
                        <mxRectangle width="104" height="40" as="alternateBounds"/>
                    </mxGeometry>
                </mxCell>
                <mxCell id="171" value="スキル効果量" style="rounded=0;whiteSpace=wrap;html=1;" vertex="1" parent="1">
                    <mxGeometry x="660" y="870" width="120" height="60" as="geometry"/>
                </mxCell>
                <mxCell id="172" value="" style="shape=table;html=1;whiteSpace=wrap;startSize=0;container=1;collapsible=0;childLayout=tableLayout;" vertex="1" parent="1">
                    <mxGeometry x="660" y="960" width="210" height="160" as="geometry"/>
                </mxCell>
                <mxCell id="173" value="" style="shape=tableRow;horizontal=0;startSize=0;swimlaneHead=0;swimlaneBody=0;top=0;left=0;bottom=0;right=0;collapsible=0;dropTarget=0;fillColor=none;points=[[0,0.5],[1,0.5]];portConstraint=eastwest;" vertex="1" parent="172">
                    <mxGeometry width="210" height="40" as="geometry"/>
                </mxCell>
                <mxCell id="174" value="" style="shape=partialRectangle;html=1;whiteSpace=wrap;connectable=0;fillColor=none;top=0;left=0;bottom=0;right=0;overflow=hidden;" vertex="1" parent="173">
                    <mxGeometry width="106" height="40" as="geometry">
                        <mxRectangle width="106" height="40" as="alternateBounds"/>
                    </mxGeometry>
                </mxCell>
                <mxCell id="175" value="効果量" style="shape=partialRectangle;html=1;whiteSpace=wrap;connectable=0;fillColor=none;top=0;left=0;bottom=0;right=0;overflow=hidden;" vertex="1" parent="173">
                    <mxGeometry x="106" width="104" height="40" as="geometry">
                        <mxRectangle width="104" height="40" as="alternateBounds"/>
                    </mxGeometry>
                </mxCell>
                <mxCell id="178" value="" style="shape=tableRow;horizontal=0;startSize=0;swimlaneHead=0;swimlaneBody=0;top=0;left=0;bottom=0;right=0;collapsible=0;dropTarget=0;fillColor=none;points=[[0,0.5],[1,0.5]];portConstraint=eastwest;" vertex="1" parent="172">
                    <mxGeometry y="40" width="210" height="40" as="geometry"/>
                </mxCell>
                <mxCell id="179" value="TA確率" style="shape=partialRectangle;html=1;whiteSpace=wrap;connectable=0;fillColor=none;top=0;left=0;bottom=0;right=0;overflow=hidden;" vertex="1" parent="178">
                    <mxGeometry width="106" height="40" as="geometry">
                        <mxRectangle width="106" height="40" as="alternateBounds"/>
                    </mxGeometry>
                </mxCell>
                <mxCell id="180" value="55" style="shape=partialRectangle;html=1;whiteSpace=wrap;connectable=0;fillColor=none;top=0;left=0;bottom=0;right=0;overflow=hidden;" vertex="1" parent="178">
                    <mxGeometry x="106" width="104" height="40" as="geometry">
                        <mxRectangle width="104" height="40" as="alternateBounds"/>
                    </mxGeometry>
                </mxCell>
                <mxCell id="183" value="" style="shape=tableRow;horizontal=0;startSize=0;swimlaneHead=0;swimlaneBody=0;top=0;left=0;bottom=0;right=0;collapsible=0;dropTarget=0;fillColor=none;points=[[0,0.5],[1,0.5]];portConstraint=eastwest;" vertex="1" parent="172">
                    <mxGeometry y="80" width="210" height="40" as="geometry"/>
                </mxCell>
                <mxCell id="184" value="HP" style="shape=partialRectangle;html=1;whiteSpace=wrap;connectable=0;fillColor=none;top=0;left=0;bottom=0;right=0;overflow=hidden;" vertex="1" parent="183">
                    <mxGeometry width="106" height="40" as="geometry">
                        <mxRectangle width="106" height="40" as="alternateBounds"/>
                    </mxGeometry>
                </mxCell>
                <mxCell id="185" value="400" style="shape=partialRectangle;html=1;whiteSpace=wrap;connectable=0;fillColor=none;top=0;left=0;bottom=0;right=0;overflow=hidden;" vertex="1" parent="183">
                    <mxGeometry x="106" width="104" height="40" as="geometry">
                        <mxRectangle width="104" height="40" as="alternateBounds"/>
                    </mxGeometry>
                </mxCell>
                <mxCell id="188" style="shape=tableRow;horizontal=0;startSize=0;swimlaneHead=0;swimlaneBody=0;top=0;left=0;bottom=0;right=0;collapsible=0;dropTarget=0;fillColor=none;points=[[0,0.5],[1,0.5]];portConstraint=eastwest;" vertex="1" parent="172">
                    <mxGeometry y="120" width="210" height="40" as="geometry"/>
                </mxCell>
                <mxCell id="189" value="防御" style="shape=partialRectangle;html=1;whiteSpace=wrap;connectable=0;fillColor=none;top=0;left=0;bottom=0;right=0;overflow=hidden;" vertex="1" parent="188">
                    <mxGeometry width="106" height="40" as="geometry">
                        <mxRectangle width="106" height="40" as="alternateBounds"/>
                    </mxGeometry>
                </mxCell>
                <mxCell id="190" value="90（HP100時）" style="shape=partialRectangle;html=1;whiteSpace=wrap;connectable=0;fillColor=none;top=0;left=0;bottom=0;right=0;overflow=hidden;" vertex="1" parent="188">
                    <mxGeometry x="106" width="104" height="40" as="geometry">
                        <mxRectangle width="104" height="40" as="alternateBounds"/>
                    </mxGeometry>
                </mxCell>
                <mxCell id="243" value="" style="shape=table;html=1;whiteSpace=wrap;startSize=0;container=1;collapsible=0;childLayout=tableLayout;" vertex="1" parent="1">
                    <mxGeometry x="1130" y="138" width="410" height="382" as="geometry"/>
                </mxCell>
                <mxCell id="244" value="" style="shape=tableRow;horizontal=0;startSize=0;swimlaneHead=0;swimlaneBody=0;top=0;left=0;bottom=0;right=0;collapsible=0;dropTarget=0;fillColor=none;points=[[0,0.5],[1,0.5]];portConstraint=eastwest;" vertex="1" parent="243">
                    <mxGeometry width="410" height="40" as="geometry"/>
                </mxCell>
                <mxCell id="245" value="" style="shape=partialRectangle;html=1;whiteSpace=wrap;connectable=0;fillColor=none;top=0;left=0;bottom=0;right=0;overflow=hidden;" vertex="1" parent="244">
                    <mxGeometry width="80" height="40" as="geometry">
                        <mxRectangle width="80" height="40" as="alternateBounds"/>
                    </mxGeometry>
                </mxCell>
                <mxCell id="246" value="武器名" style="shape=partialRectangle;html=1;whiteSpace=wrap;connectable=0;fillColor=none;top=0;left=0;bottom=0;right=0;overflow=hidden;" vertex="1" parent="244">
                    <mxGeometry x="80" width="140" height="40" as="geometry">
                        <mxRectangle width="140" height="40" as="alternateBounds"/>
                    </mxGeometry>
                </mxCell>
                <mxCell id="248" value="解説" style="shape=partialRectangle;html=1;whiteSpace=wrap;connectable=0;fillColor=none;top=0;left=0;bottom=0;right=0;overflow=hidden;" vertex="1" parent="244">
                    <mxGeometry x="220" width="190" height="40" as="geometry">
                        <mxRectangle width="190" height="40" as="alternateBounds"/>
                    </mxGeometry>
                </mxCell>
                <mxCell id="249" value="" style="shape=tableRow;horizontal=0;startSize=0;swimlaneHead=0;swimlaneBody=0;top=0;left=0;bottom=0;right=0;collapsible=0;dropTarget=0;fillColor=none;points=[[0,0.5],[1,0.5]];portConstraint=eastwest;" vertex="1" parent="243">
                    <mxGeometry y="40" width="410" height="40" as="geometry"/>
                </mxCell>
                <mxCell id="250" value="メイン" style="shape=partialRectangle;html=1;whiteSpace=wrap;connectable=0;fillColor=none;top=0;left=0;bottom=0;right=0;overflow=hidden;" vertex="1" parent="249">
                    <mxGeometry width="80" height="40" as="geometry">
                        <mxRectangle width="80" height="40" as="alternateBounds"/>
                    </mxGeometry>
                </mxCell>
                <mxCell id="251" value="超越アグニス220↑" style="shape=partialRectangle;html=1;whiteSpace=wrap;connectable=0;fillColor=none;top=0;left=0;bottom=0;right=0;overflow=hidden;align=left;" vertex="1" parent="249">
                    <mxGeometry x="80" width="140" height="40" as="geometry">
                        <mxRectangle width="140" height="40" as="alternateBounds"/>
                    </mxGeometry>
                </mxCell>
                <mxCell id="253" value="極破加護目的、弱体数や奥義加速も" style="shape=partialRectangle;html=1;whiteSpace=wrap;connectable=0;fillColor=none;top=0;left=0;bottom=0;right=0;overflow=hidden;align=left;" vertex="1" parent="249">
                    <mxGeometry x="220" width="190" height="40" as="geometry">
                        <mxRectangle width="190" height="40" as="alternateBounds"/>
                    </mxGeometry>
                </mxCell>
                <mxCell id="254" value="" style="shape=tableRow;horizontal=0;startSize=0;swimlaneHead=0;swimlaneBody=0;top=0;left=0;bottom=0;right=0;collapsible=0;dropTarget=0;fillColor=none;points=[[0,0.5],[1,0.5]];portConstraint=eastwest;" vertex="1" parent="243">
                    <mxGeometry y="80" width="410" height="62" as="geometry"/>
                </mxCell>
                <mxCell id="255" value="フレンド" style="shape=partialRectangle;html=1;whiteSpace=wrap;connectable=0;fillColor=none;top=0;left=0;bottom=0;right=0;overflow=hidden;" vertex="1" parent="254">
                    <mxGeometry width="80" height="62" as="geometry">
                        <mxRectangle width="80" height="62" as="alternateBounds"/>
                    </mxGeometry>
                </mxCell>
                <mxCell id="256" value="超越アグニス220↑" style="shape=partialRectangle;html=1;whiteSpace=wrap;connectable=0;fillColor=none;top=0;left=0;bottom=0;right=0;overflow=hidden;align=left;" vertex="1" parent="254">
                    <mxGeometry x="80" width="140" height="62" as="geometry">
                        <mxRectangle width="140" height="62" as="alternateBounds"/>
                    </mxGeometry>
                </mxCell>
                <mxCell id="258" value="同上&lt;br&gt;片面極破や連撃率確保済みならルシでも良い" style="shape=partialRectangle;html=1;whiteSpace=wrap;connectable=0;fillColor=none;top=0;left=0;bottom=0;right=0;overflow=hidden;pointerEvents=1;align=left;" vertex="1" parent="254">
                    <mxGeometry x="220" width="190" height="62" as="geometry">
                        <mxRectangle width="190" height="62" as="alternateBounds"/>
                    </mxGeometry>
                </mxCell>
                <mxCell id="259" style="shape=tableRow;horizontal=0;startSize=0;swimlaneHead=0;swimlaneBody=0;top=0;left=0;bottom=0;right=0;collapsible=0;dropTarget=0;fillColor=none;points=[[0,0.5],[1,0.5]];portConstraint=eastwest;" vertex="1" parent="243">
                    <mxGeometry y="142" width="410" height="40" as="geometry"/>
                </mxCell>
                <mxCell id="260" value="通常石" style="shape=partialRectangle;html=1;whiteSpace=wrap;connectable=0;fillColor=none;top=0;left=0;bottom=0;right=0;overflow=hidden;rowspan=4;colspan=1;" vertex="1" parent="259">
                    <mxGeometry width="80" height="160" as="geometry">
                        <mxRectangle width="80" height="40" as="alternateBounds"/>
                    </mxGeometry>
                </mxCell>
                <mxCell id="261" value="黒麒麟3凸" style="shape=partialRectangle;html=1;whiteSpace=wrap;connectable=0;fillColor=none;top=0;left=0;bottom=0;right=0;overflow=hidden;align=left;" vertex="1" parent="259">
                    <mxGeometry x="80" width="140" height="40" as="geometry">
                        <mxRectangle width="140" height="40" as="alternateBounds"/>
                    </mxGeometry>
                </mxCell>
                <mxCell id="263" value="事故リカバリ" style="shape=partialRectangle;html=1;whiteSpace=wrap;connectable=0;fillColor=none;top=0;left=0;bottom=0;right=0;overflow=hidden;pointerEvents=1;align=left;" vertex="1" parent="259">
                    <mxGeometry x="220" width="190" height="40" as="geometry">
                        <mxRectangle width="190" height="40" as="alternateBounds"/>
                    </mxGeometry>
                </mxCell>
                <mxCell id="264" style="shape=tableRow;horizontal=0;startSize=0;swimlaneHead=0;swimlaneBody=0;top=0;left=0;bottom=0;right=0;collapsible=0;dropTarget=0;fillColor=none;points=[[0,0.5],[1,0.5]];portConstraint=eastwest;" vertex="1" parent="243">
                    <mxGeometry y="182" width="410" height="40" as="geometry"/>
                </mxCell>
                <mxCell id="265" style="shape=partialRectangle;html=1;whiteSpace=wrap;connectable=0;fillColor=none;top=0;left=0;bottom=0;right=0;overflow=hidden;" vertex="1" visible="0" parent="264">
                    <mxGeometry width="80" height="40" as="geometry">
                        <mxRectangle width="80" height="40" as="alternateBounds"/>
                    </mxGeometry>
                </mxCell>
                <mxCell id="266" value="トリゼロ4凸" style="shape=partialRectangle;html=1;whiteSpace=wrap;connectable=0;fillColor=none;top=0;left=0;bottom=0;right=0;overflow=hidden;align=left;" vertex="1" parent="264">
                    <mxGeometry x="80" width="140" height="40" as="geometry">
                        <mxRectangle width="140" height="40" as="alternateBounds"/>
                    </mxGeometry>
                </mxCell>
                <mxCell id="268" value="奥義5回用、裏で事故リカバリ" style="shape=partialRectangle;html=1;whiteSpace=wrap;connectable=0;fillColor=none;top=0;left=0;bottom=0;right=0;overflow=hidden;pointerEvents=1;align=left;" vertex="1" parent="264">
                    <mxGeometry x="220" width="190" height="40" as="geometry">
                        <mxRectangle width="190" height="40" as="alternateBounds"/>
                    </mxGeometry>
                </mxCell>
                <mxCell id="269" style="shape=tableRow;horizontal=0;startSize=0;swimlaneHead=0;swimlaneBody=0;top=0;left=0;bottom=0;right=0;collapsible=0;dropTarget=0;fillColor=none;points=[[0,0.5],[1,0.5]];portConstraint=eastwest;" vertex="1" parent="243">
                    <mxGeometry y="222" width="410" height="40" as="geometry"/>
                </mxCell>
                <mxCell id="270" style="shape=partialRectangle;html=1;whiteSpace=wrap;connectable=0;fillColor=none;top=0;left=0;bottom=0;right=0;overflow=hidden;" vertex="1" visible="0" parent="269">
                    <mxGeometry width="80" height="40" as="geometry">
                        <mxRectangle width="80" height="40" as="alternateBounds"/>
                    </mxGeometry>
                </mxCell>
                <mxCell id="271" value="サン5凸" style="shape=partialRectangle;html=1;whiteSpace=wrap;connectable=0;fillColor=none;top=0;left=0;bottom=0;right=0;overflow=hidden;align=left;" vertex="1" parent="269">
                    <mxGeometry x="80" width="140" height="40" as="geometry">
                        <mxRectangle width="140" height="40" as="alternateBounds"/>
                    </mxGeometry>
                </mxCell>
                <mxCell id="273" value="6回行動、ゼタの自動アビ" style="shape=partialRectangle;html=1;whiteSpace=wrap;connectable=0;fillColor=none;top=0;left=0;bottom=0;right=0;overflow=hidden;pointerEvents=1;align=left;" vertex="1" parent="269">
                    <mxGeometry x="220" width="190" height="40" as="geometry">
                        <mxRectangle width="190" height="40" as="alternateBounds"/>
                    </mxGeometry>
                </mxCell>
                <mxCell id="274" style="shape=tableRow;horizontal=0;startSize=0;swimlaneHead=0;swimlaneBody=0;top=0;left=0;bottom=0;right=0;collapsible=0;dropTarget=0;fillColor=none;points=[[0,0.5],[1,0.5]];portConstraint=eastwest;" vertex="1" parent="243">
                    <mxGeometry y="262" width="410" height="40" as="geometry"/>
                </mxCell>
                <mxCell id="275" style="shape=partialRectangle;html=1;whiteSpace=wrap;connectable=0;fillColor=none;top=0;left=0;bottom=0;right=0;overflow=hidden;" vertex="1" visible="0" parent="274">
                    <mxGeometry width="80" height="40" as="geometry">
                        <mxRectangle width="80" height="40" as="alternateBounds"/>
                    </mxGeometry>
                </mxCell>
                <mxCell id="276" value="超越ルシ230↑" style="shape=partialRectangle;html=1;whiteSpace=wrap;connectable=0;fillColor=none;top=0;left=0;bottom=0;right=0;overflow=hidden;align=left;" vertex="1" parent="274">
                    <mxGeometry x="80" width="140" height="40" as="geometry">
                        <mxRectangle width="140" height="40" as="alternateBounds"/>
                    </mxGeometry>
                </mxCell>
                <mxCell id="278" value="回復" style="shape=partialRectangle;html=1;whiteSpace=wrap;connectable=0;fillColor=none;top=0;left=0;bottom=0;right=0;overflow=hidden;pointerEvents=1;align=left;" vertex="1" parent="274">
                    <mxGeometry x="220" width="190" height="40" as="geometry">
                        <mxRectangle width="190" height="40" as="alternateBounds"/>
                    </mxGeometry>
                </mxCell>
                <mxCell id="279" style="shape=tableRow;horizontal=0;startSize=0;swimlaneHead=0;swimlaneBody=0;top=0;left=0;bottom=0;right=0;collapsible=0;dropTarget=0;fillColor=none;points=[[0,0.5],[1,0.5]];portConstraint=eastwest;" vertex="1" parent="243">
                    <mxGeometry y="302" width="410" height="40" as="geometry"/>
                </mxCell>
                <mxCell id="280" value="サブ加護" style="shape=partialRectangle;html=1;whiteSpace=wrap;connectable=0;fillColor=none;top=0;left=0;bottom=0;right=0;overflow=hidden;rowspan=2;colspan=1;" vertex="1" parent="279">
                    <mxGeometry width="80" height="80" as="geometry">
                        <mxRectangle width="80" height="40" as="alternateBounds"/>
                    </mxGeometry>
                </mxCell>
                <mxCell id="281" value="ミカエル&lt;br&gt;無凸～" style="shape=partialRectangle;html=1;whiteSpace=wrap;connectable=0;fillColor=none;top=0;left=0;bottom=0;right=0;overflow=hidden;align=left;" vertex="1" parent="279">
                    <mxGeometry x="80" width="140" height="40" as="geometry">
                        <mxRectangle width="140" height="40" as="alternateBounds"/>
                    </mxGeometry>
                </mxCell>
                <mxCell id="283" value="ダメ上限強化" style="shape=partialRectangle;html=1;whiteSpace=wrap;connectable=0;fillColor=none;top=0;left=0;bottom=0;right=0;overflow=hidden;pointerEvents=1;align=left;" vertex="1" parent="279">
                    <mxGeometry x="220" width="190" height="40" as="geometry">
                        <mxRectangle width="190" height="40" as="alternateBounds"/>
                    </mxGeometry>
                </mxCell>
                <mxCell id="284" style="shape=tableRow;horizontal=0;startSize=0;swimlaneHead=0;swimlaneBody=0;top=0;left=0;bottom=0;right=0;collapsible=0;dropTarget=0;fillColor=none;points=[[0,0.5],[1,0.5]];portConstraint=eastwest;" vertex="1" parent="243">
                    <mxGeometry y="342" width="410" height="40" as="geometry"/>
                </mxCell>
                <mxCell id="285" style="shape=partialRectangle;html=1;whiteSpace=wrap;connectable=0;fillColor=none;top=0;left=0;bottom=0;right=0;overflow=hidden;" vertex="1" visible="0" parent="284">
                    <mxGeometry width="80" height="40" as="geometry">
                        <mxRectangle width="80" height="40" as="alternateBounds"/>
                    </mxGeometry>
                </mxCell>
                <mxCell id="286" value="ウィルナス4凸" style="shape=partialRectangle;html=1;whiteSpace=wrap;connectable=0;fillColor=none;top=0;left=0;bottom=0;right=0;overflow=hidden;align=left;" vertex="1" parent="284">
                    <mxGeometry x="80" width="140" height="40" as="geometry">
                        <mxRectangle width="140" height="40" as="alternateBounds"/>
                    </mxGeometry>
                </mxCell>
                <mxCell id="288" value="" style="shape=partialRectangle;html=1;whiteSpace=wrap;connectable=0;fillColor=none;top=0;left=0;bottom=0;right=0;overflow=hidden;pointerEvents=1;align=left;" vertex="1" parent="284">
                    <mxGeometry x="220" width="190" height="40" as="geometry">
                        <mxRectangle width="190" height="40" as="alternateBounds"/>
                    </mxGeometry>
                </mxCell>
                <mxCell id="330" value="動画" style="rounded=0;whiteSpace=wrap;html=1;" vertex="1" parent="1">
                    <mxGeometry x="1570" y="50" width="120" height="60" as="geometry"/>
                </mxCell>
                <mxCell id="331" value="https://youtube.com/xxxxxxxx" style="rounded=0;whiteSpace=wrap;html=1;align=left;" vertex="1" parent="1">
                    <mxGeometry x="1570" y="150" width="250" height="60" as="geometry"/>
                </mxCell>
            </root>
        </mxGraphModel>
    </diagram>
</mxfile>